<svg width="78" height="84" viewBox="0 0 78 84" fill="none" xmlns="http://www.w3.org/2000/svg">
<g clip-path="url(#clip0_1_141)">
<path d="M14.0236 41.8801C13.8872 42.115 13.8369 42.3912 13.8817 42.66C13.9265 42.9288 14.0635 43.173 14.2685 43.3495C21.9224 49.9178 23.7509 60.3686 24.0393 62.3964C24.0783 62.6715 24.2138 62.9232 24.4208 63.1054C24.6279 63.2877 24.8927 63.3883 25.167 63.389C25.2209 63.3885 25.2747 63.3841 25.3281 63.376C25.627 63.3323 25.8966 63.1703 26.0778 62.9254C26.259 62.6806 26.337 62.3729 26.2947 62.0698C25.9402 59.5784 24.5129 52.1284 19.6122 45.7071C22.6151 47.1977 25.6019 49.1651 28.3616 52.2068C31.3129 55.6648 33.1092 60.811 33.1269 60.86C33.1748 61.0052 33.2506 61.1393 33.35 61.2545C33.4494 61.3697 33.5704 61.4638 33.706 61.5312C33.8415 61.5987 33.989 61.6382 34.1397 61.6474C34.2904 61.6567 34.4415 61.6355 34.5841 61.5852C34.7267 61.5348 34.858 61.4562 34.9704 61.354C35.0828 61.2518 35.1741 61.128 35.2389 60.9897C35.3037 60.8515 35.3408 60.7016 35.348 60.5487C35.3552 60.3958 35.3324 60.243 35.2808 60.0992C35.2051 59.8771 33.4201 54.7554 30.3254 50.979C30.0902 47.6271 29.2637 40.9331 26.3817 34.7387C29.0217 37.2153 31.3189 40.0427 33.2107 43.1438L33.2316 43.1813C35.1312 46.3122 36.6502 49.6645 37.7553 53.1652V53.1766V53.1929C38.2386 54.7162 38.8218 57.2159 39.2053 59.0477C39.2598 59.3068 39.4004 59.5391 39.6036 59.7058C39.8068 59.8725 40.0603 59.9635 40.3217 59.9637C40.4018 59.9635 40.4816 59.9553 40.5601 59.9392C40.8562 59.8749 41.1151 59.6943 41.28 59.4369C41.4448 59.1795 41.5023 58.8663 41.4397 58.5661C41.0724 56.8224 40.5295 54.4844 40.0462 52.8648C41.2642 49.4132 42.8903 46.1239 44.8889 43.0686L44.9775 42.9364C46.8955 40.0178 49.1882 37.3709 51.7953 35.0652C48.6216 41.4327 47.6598 48.3945 47.3763 51.5945V51.6109C47.3763 51.619 47.3763 51.6288 47.3763 51.637C47.1008 56.9497 48.1657 60.6527 48.2108 60.8078C48.3061 61.0899 48.5053 61.3239 48.7667 61.4609C49.0281 61.5979 49.3315 61.6274 49.6139 61.5432C49.8962 61.4589 50.1355 61.2675 50.282 61.0089C50.4285 60.7502 50.4708 60.4442 50.4001 60.1547C50.3905 60.122 49.4625 56.8567 49.6365 52.1986C52.0751 49.6851 54.8824 47.5686 57.959 45.9242C56.1417 48.4108 54.774 51.3692 53.9218 54.695C52.8537 58.8763 52.9793 62.1466 52.9858 62.2837C52.9986 62.5812 53.1243 62.8621 53.3364 63.068C53.5486 63.2739 53.831 63.3889 54.1248 63.389H54.1763C54.4788 63.3755 54.7635 63.2408 54.968 63.0145C55.1726 62.7883 55.2801 62.489 55.267 62.1825C55.267 62.0617 54.8465 49.9814 63.6539 43.4066C63.8742 43.2422 64.029 43.0031 64.0901 42.7328C64.1511 42.4625 64.1144 42.1789 63.9866 41.9338C63.8588 41.6886 63.6484 41.498 63.3937 41.3968C63.139 41.2955 62.8568 41.2903 62.5986 41.3821C57.7076 43.1209 53.6527 45.4638 50.0538 48.6443C50.7835 43.9095 52.5685 36.6555 56.9054 31.3019C57.0765 31.0921 57.1692 30.8278 57.1669 30.5555C57.1646 30.2833 57.0676 30.0206 56.893 29.8137C56.7183 29.6069 56.4772 29.4691 56.2122 29.4248C55.9472 29.3804 55.6752 29.4323 55.4442 29.5712C52.5186 31.3052 48.3815 34.4317 44.4636 39.6972C42.5835 33.0701 42.3483 29.1418 44.085 22.1768C44.1461 21.9302 44.1254 21.6701 44.0261 21.4366C43.9268 21.2031 43.7544 21.0092 43.5355 20.8849C43.3166 20.7606 43.0635 20.7128 42.8151 20.7489C42.5668 20.785 42.3371 20.903 42.1614 21.0845C36.1701 27.2888 33.9614 33.893 33.3009 39.1355C29.6246 34.0236 25.7066 30.9035 22.8874 29.1206C22.6599 28.9774 22.39 28.9197 22.1248 28.9577C21.8597 28.9956 21.6161 29.1268 21.4366 29.3283C21.2572 29.5298 21.1533 29.7888 21.1432 30.06C21.133 30.3312 21.2172 30.5974 21.3811 30.8121C25.5923 36.3044 27.1807 43.6385 27.7784 48.3928C23.7654 44.8107 19.4898 42.9642 15.4075 41.387C15.1565 41.2908 14.88 41.2875 14.6268 41.3777C14.3736 41.4679 14.16 41.6458 14.0236 41.8801V41.8801ZM42.7962 42.1119C41.2823 44.4609 39.9791 46.9427 38.9024 49.5275C37.9287 47.0062 36.743 44.5743 35.3582 42.2588C35.4661 37.9355 36.6131 31.9729 40.9693 26.0479C40.1461 31.5468 40.8469 35.6661 42.7962 42.1119Z" fill="white"/>
<path d="M74.4476 59.3122C72.8849 58.1122 70.0801 59.3579 66.5536 62.8208C66.5257 62.8475 66.4993 62.8759 66.4747 62.9057C63.8423 66.0715 54.1876 72.3557 47.7113 73.83L47.6743 73.8382C44.1897 74.7541 42.8558 74.6807 42.4047 74.586C42.5658 74.2121 43.0571 73.5231 43.8868 72.7525C45.9698 70.8161 48.222 68.354 47.1314 66.4846C46.2115 64.9107 43.5034 64.0911 30.037 68.7197C23.7235 70.8896 17.1361 69.3483 10.4585 64.1368C7.28275 61.6239 4.46763 58.6753 2.09413 55.3758C1.95846 55.1683 1.76041 55.0107 1.52937 54.9263C1.29833 54.8419 1.04659 54.8352 0.8115 54.9072C0.576411 54.9792 0.370489 55.1262 0.22428 55.3261C0.0780701 55.5261 -0.000640215 55.7686 -0.00017646 56.0175C-0.0079986 56.1808 0.0246784 56.3436 0.0948728 56.4909C2.77789 63.8917 7.46215 70.3777 13.6118 75.207C19.7615 80.0364 27.1282 83.0139 34.8693 83.7992C42.6105 84.5844 50.4134 83.1456 57.3855 79.6474C64.3576 76.1491 70.2174 70.7327 74.2945 64.0176C74.2966 64.0124 74.2993 64.0074 74.3026 64.0029L74.5893 63.5131L74.6135 63.4707C75.5688 61.6812 75.506 60.1253 74.4476 59.3122ZM72.6158 62.3523L72.3452 62.8094C65.1521 74.63 52.6909 81.6849 38.9974 81.6849C25.465 81.6849 13.0264 74.5402 5.9396 63.2715C7.24596 64.5202 8.63171 65.6808 10.0879 66.7458C13.1633 68.9793 16.2951 70.5189 19.3995 71.3173C23.1465 72.3191 27.102 72.1777 30.77 70.9108C42.0116 67.0479 44.5908 67.4593 45.1079 67.6699C45.0274 67.9785 44.5989 68.9499 42.3418 71.0479C40.9499 72.3394 39.4646 74.2023 40.2878 75.7386C41.111 77.275 43.3987 77.3501 48.2285 76.0831C55.2025 74.4896 65.2407 67.9295 68.1791 64.4437C70.9291 61.7563 72.4982 61.1784 73.0025 61.1784C72.9993 61.3661 72.9268 61.7629 72.6158 62.3523Z" fill="white"/>
<path d="M77.9046 27.514C75.2231 20.112 70.5397 13.6245 64.3902 8.79385C58.2408 3.96321 50.8737 0.984572 43.132 0.198758C35.3904 -0.587056 27.5868 0.8517 20.6142 4.3504C13.6416 7.8491 7.78165 13.2664 3.70492 19.9824L3.69686 19.9955L3.4101 20.4853L3.38594 20.5294C2.43061 22.3254 2.49183 23.8764 3.54704 24.6895C5.10971 25.8895 7.91447 24.6454 11.441 21.1825C11.4693 21.1556 11.4957 21.1267 11.5199 21.0959C14.1603 17.9269 23.8151 11.6427 30.2865 10.17L30.3235 10.1602C33.8081 9.24591 35.1421 9.31938 35.5931 9.41408C35.432 9.78796 34.9407 10.477 34.1126 11.246C32.028 13.1823 29.7758 15.6444 30.8681 17.5155C31.7879 19.0894 34.4944 19.909 47.9608 15.2803C54.2743 13.1105 60.8617 14.6517 67.541 19.8616C70.7169 22.3743 73.5316 25.3236 75.9037 28.6242C76.0083 28.7821 76.1495 28.9115 76.3149 29.0012C76.4804 29.0908 76.665 29.138 76.8526 29.1385C76.9195 29.1382 76.9864 29.1322 77.0523 29.1206C77.3172 29.0732 77.557 28.9326 77.7294 28.7235C77.9018 28.5144 77.9958 28.2502 77.9948 27.9777C78.0029 27.818 77.9719 27.6587 77.9046 27.514ZM67.9083 17.2526C64.8345 15.0207 61.7011 13.4811 58.5983 12.6794C54.8525 11.6792 50.8988 11.8218 47.2326 13.0893C35.9911 16.9522 33.4134 16.5407 32.8947 16.3301C32.9753 16.0216 33.4038 15.0501 35.6608 12.9521C37.0527 11.659 38.5364 9.79613 37.7132 8.2614C36.89 6.72668 34.6024 6.64831 29.7726 7.91691C22.8002 9.51041 12.7604 16.0689 9.82673 19.5547C7.07675 22.2421 5.50763 22.8201 5.00339 22.8201C5.00339 22.6274 5.07749 22.2323 5.39003 21.6413L5.65907 21.1857C12.8538 9.3651 25.3133 2.30863 39.0069 2.30863C52.5393 2.30863 64.9762 9.45326 72.0631 20.7237C70.7552 19.4751 69.3672 18.3155 67.9083 17.2526V17.2526Z" fill="white"/>
</g>
<defs>
<clipPath id="clip0_1_141">
<rect width="78" height="84" fill="white"/>
</clipPath>
</defs>
</svg>
