<svg width="114" height="18" viewBox="0 0 114 18" fill="none" xmlns="http://www.w3.org/2000/svg">
<path d="M15.9627 6.20694L11.4996 5.55831L9.50447 1.51358C9.44997 1.40284 9.36032 1.31319 9.24958 1.2587C8.97185 1.12159 8.63435 1.23585 8.49548 1.51358L6.50036 5.55831L2.03728 6.20694C1.91423 6.22452 1.80173 6.28253 1.7156 6.37042C1.61147 6.47744 1.55409 6.62143 1.55606 6.77074C1.55804 6.92006 1.61922 7.06247 1.72614 7.16671L4.95525 10.3149L4.19236 14.7605C4.17446 14.8639 4.18591 14.9702 4.22539 15.0675C4.26487 15.1647 4.3308 15.2489 4.41572 15.3106C4.50063 15.3723 4.60113 15.4089 4.70581 15.4164C4.81049 15.4239 4.91517 15.4018 5.00798 15.3528L8.99997 13.254L12.992 15.3528C13.1009 15.4108 13.2275 15.4302 13.3488 15.4091C13.6547 15.3564 13.8603 15.0663 13.8076 14.7605L13.0447 10.3149L16.2738 7.16671C16.3617 7.08057 16.4197 6.96807 16.4373 6.84503C16.4847 6.53741 16.2703 6.25264 15.9627 6.20694Z" fill="#6CB981"/>
<path d="M39.9627 6.20694L35.4996 5.55831L33.5045 1.51358C33.45 1.40284 33.3603 1.31319 33.2496 1.2587C32.9718 1.12159 32.6343 1.23585 32.4955 1.51358L30.5004 5.55831L26.0373 6.20694C25.9142 6.22452 25.8017 6.28253 25.7156 6.37042C25.6115 6.47744 25.5541 6.62143 25.5561 6.77074C25.558 6.92006 25.6192 7.06247 25.7261 7.16671L28.9552 10.3149L28.1924 14.7605C28.1745 14.8639 28.1859 14.9702 28.2254 15.0675C28.2649 15.1647 28.3308 15.2489 28.4157 15.3106C28.5006 15.3723 28.6011 15.4089 28.7058 15.4164C28.8105 15.4239 28.9152 15.4018 29.008 15.3528L33 13.254L36.992 15.3528C37.1009 15.4108 37.2275 15.4302 37.3488 15.4091C37.6547 15.3564 37.8603 15.0663 37.8076 14.7605L37.0447 10.3149L40.2738 7.16671C40.3617 7.08057 40.4197 6.96807 40.4373 6.84503C40.4847 6.53741 40.2703 6.25264 39.9627 6.20694Z" fill="#6CB981"/>
<path d="M63.9627 6.20694L59.4996 5.55831L57.5045 1.51358C57.45 1.40284 57.3603 1.31319 57.2496 1.2587C56.9718 1.12159 56.6343 1.23585 56.4955 1.51358L54.5004 5.55831L50.0373 6.20694C49.9142 6.22452 49.8017 6.28253 49.7156 6.37042C49.6115 6.47744 49.5541 6.62143 49.5561 6.77074C49.558 6.92006 49.6192 7.06247 49.7261 7.16671L52.9552 10.3149L52.1924 14.7605C52.1745 14.8639 52.1859 14.9702 52.2254 15.0675C52.2649 15.1647 52.3308 15.2489 52.4157 15.3106C52.5006 15.3723 52.6011 15.4089 52.7058 15.4164C52.8105 15.4239 52.9152 15.4018 53.008 15.3528L57 13.254L60.992 15.3528C61.1009 15.4108 61.2275 15.4302 61.3488 15.4091C61.6547 15.3564 61.8603 15.0663 61.8076 14.7605L61.0447 10.3149L64.2738 7.16671C64.3617 7.08057 64.4197 6.96807 64.4373 6.84503C64.4847 6.53741 64.2703 6.25264 63.9627 6.20694Z" fill="#6CB981"/>
<path d="M87.9627 6.20694L83.4996 5.55831L81.5045 1.51358C81.45 1.40284 81.3603 1.31319 81.2496 1.2587C80.9718 1.12159 80.6343 1.23585 80.4955 1.51358L78.5004 5.55831L74.0373 6.20694C73.9142 6.22452 73.8017 6.28253 73.7156 6.37042C73.6115 6.47744 73.5541 6.62143 73.5561 6.77074C73.558 6.92006 73.6192 7.06247 73.7261 7.16671L76.9552 10.3149L76.1924 14.7605C76.1745 14.8639 76.1859 14.9702 76.2254 15.0675C76.2649 15.1647 76.3308 15.2489 76.4157 15.3106C76.5006 15.3723 76.6011 15.4089 76.7058 15.4164C76.8105 15.4239 76.9152 15.4018 77.008 15.3528L81 13.254L84.992 15.3528C85.1009 15.4108 85.2275 15.4302 85.3488 15.4091C85.6547 15.3564 85.8603 15.0663 85.8076 14.7605L85.0447 10.3149L88.2738 7.16671C88.3617 7.08057 88.4197 6.96807 88.4373 6.84503C88.4847 6.53741 88.2703 6.25264 87.9627 6.20694Z" fill="#6CB981"/>
<path d="M111.963 6.20694L107.5 5.55831L105.504 1.51358C105.45 1.40284 105.36 1.31319 105.25 1.2587C104.972 1.12159 104.634 1.23585 104.495 1.51358L102.5 5.55831L98.0373 6.20694C97.9142 6.22452 97.8017 6.28253 97.7156 6.37042C97.6115 6.47744 97.5541 6.62143 97.5561 6.77074C97.558 6.92006 97.6192 7.06247 97.7261 7.16671L100.955 10.3149L100.192 14.7605C100.174 14.8639 100.186 14.9702 100.225 15.0675C100.265 15.1647 100.331 15.2489 100.416 15.3106C100.501 15.3723 100.601 15.4089 100.706 15.4164C100.81 15.4239 100.915 15.4018 101.008 15.3528L105 13.254L108.992 15.3528C109.101 15.4108 109.228 15.4302 109.349 15.4091C109.655 15.3564 109.86 15.0663 109.808 14.7605L109.045 10.3149L112.274 7.16671C112.362 7.08057 112.42 6.96807 112.437 6.84503C112.485 6.53741 112.27 6.25264 111.963 6.20694V6.20694Z" fill="#6CB981"/>
</svg>
